<svg width="101" height="103" viewBox="0 0 101 103" fill="none" xmlns="http://www.w3.org/2000/svg">
<path d="M99.5 51.5C99.5 79.1421 77.5344 101.5 50.5 101.5C23.4656 101.5 1.5 79.1421 1.5 51.5C1.5 23.8579 23.4656 1.5 50.5 1.5C77.5344 1.5 99.5 23.8579 99.5 51.5Z" stroke="#CF9030" stroke-width="3"/>
<path d="M91 52C91 62.9592 86.8694 73.4843 79.4899 81.3288C72.1103 89.1734 62.0664 93.716 51.5019 93.9871C40.9374 94.2583 30.6891 90.2364 22.9444 82.7799C15.1998 75.3235 10.5723 65.0231 10.0496 54.0774C9.52688 43.1316 13.1504 32.4075 20.1468 24.194C27.1431 15.9805 36.9581 10.9283 47.4968 10.1156C58.0355 9.30297 68.463 12.7943 76.5538 19.8444C84.6446 26.8944 89.7577 36.9448 90.8018 47.8504L82.5007 48.7051C81.6716 40.0458 77.6117 32.0656 71.1874 26.4676C64.7631 20.8697 56.4833 18.0975 48.1154 18.7428C39.7474 19.388 31.9541 23.3997 26.3988 29.9214C20.8435 36.4431 17.9663 44.9583 18.3814 53.6495C18.7964 62.3407 22.4707 70.5194 28.6202 76.44C34.7696 82.3606 42.907 85.5541 51.2955 85.3388C59.684 85.1236 67.6592 81.5166 73.5187 75.2878C79.3782 69.059 82.658 60.7019 82.658 52H91Z" fill="#FF9900"/>
</svg>
